<?xml version="1.0" encoding="UTF-8"?><svg id="Layer_1" xmlns="http://www.w3.org/2000/svg" width="909.7" height="284.73" xmlns:xlink="http://www.w3.org/1999/xlink" viewBox="0 0 909.7 284.73"><defs><style>.cls-1{fill:#f8f8f9;}.cls-2{fill:url(#linear-gradient-2);}.cls-3{fill:url(#linear-gradient);}</style><linearGradient id="linear-gradient" x1="117.07" y1="112.64" x2="197.86" y2="171.5" gradientUnits="userSpaceOnUse"><stop offset=".2" stop-color="#f9ac5c"/><stop offset=".28" stop-color="#f5a35d"/><stop offset=".39" stop-color="#ea8d61"/><stop offset=".53" stop-color="#d86968"/><stop offset=".62" stop-color="#cc4f6d"/><stop offset="1" stop-color="#6b3c87"/></linearGradient><linearGradient id="linear-gradient-2" x1="190.56" y1="131.55" x2="282.55" y2="151.1" gradientUnits="userSpaceOnUse"><stop offset="0" stop-color="#cc4f6d"/><stop offset="1" stop-color="#5e2b7b"/></linearGradient></defs><path class="cls-3" d="M186.06,152.7s11.5,11.5,11.5,11.5c-2.9,2.82-5.79,5.65-8.7,8.47-9.93,9.63-23.84,14.88-37.66,13.28-19.83-2.29-36.32-18.55-39.23-38.28-2.82-19.17,7.73-38.97,25.28-47.2,8.82-4.14,18.97-5.16,28.44-2.88,7.03,1.69,13.79,4.77,19.4,9.38,3.19,2.62,6.01,5.74,8.94,8.65,3.13,3.11,6.26,6.22,9.39,9.32,1.94,1.93,3.88,3.85,5.82,5.78-3.78,3.59-7.56,7.17-11.33,10.76-.16.16-12.94-11.8-14.16-12.92-4.6-4.22-8.7-9.23-14.24-12.27-5.88-3.23-12.78-4.08-19.3-2.58-12.87,2.97-22.18,14.72-22.07,27.99.09,11.59,7.66,23.01,18.89,26.49,5.09,1.58,9.95,2.26,15.24,1.19,10.33-2.08,16.57-9.69,23.76-16.67Z"/><path class="cls-2" d="M209.27,130.71c-3.92-3.89-7.84-7.78-11.76-11.67,4.21-4.22,8.42-8.43,12.62-12.65,3.48-2.64,10.84-7.48,21.4-9.02,4.31-.63,14.9-1.55,26.29,3.92,7.21,3.47,11.92,8.13,14.52,11.13,2.51,3.06,6.19,8.3,8.59,15.69,2.48,7.63,2.51,14.24,2.23,18.23-.27,3.51-1.08,8.51-3.5,13.99-3.83,8.67-9.65,13.97-12.93,16.54-2.95,2.43-8.82,6.63-17.38,8.69-9.01,2.17-16.5.9-20.25,0-3.35-.68-8.18-2.07-13.36-5.09-4.33-2.53-7.5-5.38-9.65-7.63l-20.03-20.14,11.87-11.24,12.72,12.72c3.79,3.53,7.58,7.07,11.38,10.6,12.35,11.51,34.23,3.68,41.34-9.78,6.03-11.41,3.03-26.84-6.84-35.16-11.04-9.3-28.38-8.37-38.58,1.66-1.09,1.07-4.36,4.49-8.68,9.2Z"/><path class="cls-1" d="M318.29,126.54c1.83-4.63,4.38-8.24,7.65-10.83,3.27-2.58,6.98-3.88,11.12-3.88,5.08,0,9.42,1.88,13.04,5.63,3.62,3.75,6.03,8.86,7.25,15.34h-11.46c-.85-2.5-2.06-4.4-3.63-5.71-1.56-1.31-3.34-1.96-5.33-1.96-3.21,0-5.81,1.56-7.8,4.69-1.99,3.13-2.99,7.3-2.99,12.53s1,9.41,2.99,12.53c1.99,3.13,4.59,4.69,7.8,4.69,1.99,0,3.77-.65,5.33-1.96,1.56-1.31,2.77-3.21,3.63-5.71h11.46c-1.22,6.48-3.64,11.58-7.25,15.3-3.62,3.72-7.96,5.58-13.04,5.58-4.14,0-7.85-1.29-11.12-3.88-3.27-2.58-5.82-6.18-7.65-10.78s-2.74-9.86-2.74-15.77.91-11.18,2.74-15.81Z"/><path class="cls-1" d="M390.14,172.35l-8.9-22.59h-2.5v22.59h-10.42v-59.84h17.49c3.37,0,6.25.82,8.62,2.47,2.38,1.65,4.15,3.91,5.33,6.78,1.18,2.87,1.77,6.07,1.77,9.59,0,3.98-.8,7.53-2.41,10.65-1.61,3.13-3.97,5.34-7.1,6.65l9.87,23.7h-11.76ZM378.74,139.45h6.46c1.91,0,3.34-.65,4.3-1.96.95-1.31,1.43-3.15,1.43-5.54s-.48-4.06-1.43-5.37c-.96-1.31-2.39-1.96-4.3-1.96h-6.46v14.83Z"/><path class="cls-1" d="M423.04,124.2v12.1h13.96v11.25h-13.96v13.13h15.78v11.68h-26.2v-59.84h26.2v11.68h-15.78Z"/><path class="cls-1" d="M459.33,169.03c-3.35-2.61-6.01-6.26-7.98-10.95-1.97-4.69-2.96-9.96-2.96-15.81s.98-11.11,2.96-15.77c1.97-4.66,4.63-8.3,7.98-10.91,3.35-2.61,7.04-3.92,11.06-3.92s7.71,1.31,11.06,3.92c3.35,2.61,5.99,6.25,7.92,10.91,1.93,4.66,2.89,9.92,2.89,15.77s-.98,11.12-2.93,15.81c-1.95,4.69-4.59,8.34-7.92,10.95-3.33,2.61-7.01,3.92-11.03,3.92s-7.71-1.31-11.06-3.92ZM478.59,154.88c2.05-3.18,3.08-7.39,3.08-12.62s-1.03-9.5-3.08-12.66c-2.05-3.15-4.78-4.73-8.2-4.73s-6.21,1.56-8.26,4.69c-2.05,3.13-3.08,7.36-3.08,12.7s1.03,9.5,3.08,12.66c2.05,3.15,4.8,4.73,8.26,4.73s6.14-1.59,8.2-4.77Z"/><path class="cls-1" d="M511.8,169.03c-3.35-2.61-6.01-6.26-7.98-10.95-1.97-4.69-2.96-9.96-2.96-15.81s.98-11.11,2.96-15.77c1.97-4.66,4.63-8.3,7.98-10.91,3.35-2.61,7.04-3.92,11.06-3.92s7.71,1.31,11.06,3.92c3.35,2.61,5.99,6.25,7.92,10.91,1.93,4.66,2.89,9.92,2.89,15.77s-.98,11.12-2.93,15.81c-1.95,4.69-4.59,8.34-7.92,10.95-3.33,2.61-7.01,3.92-11.03,3.92s-7.71-1.31-11.06-3.92ZM531.05,154.88c2.05-3.18,3.08-7.39,3.08-12.62s-1.03-9.5-3.08-12.66c-2.05-3.15-4.78-4.73-8.2-4.73s-6.21,1.56-8.26,4.69c-2.05,3.13-3.08,7.36-3.08,12.7s1.03,9.5,3.08,12.66c2.05,3.15,4.8,4.73,8.26,4.73s6.14-1.59,8.2-4.77Z"/><path class="cls-1" d="M579.65,170.82c-2.48-1.42-4.46-3.52-5.94-6.31-1.48-2.78-2.26-6.14-2.35-10.06h11.09c.16,2.22.71,3.91,1.65,5.07.93,1.17,2.15,1.75,3.66,1.75s2.76-.5,3.66-1.49c.89-.99,1.34-2.37,1.34-4.13,0-1.48-.36-2.7-1.07-3.67-.71-.96-1.58-1.76-2.62-2.39-1.04-.62-2.51-1.33-4.42-2.13-2.76-1.19-5.02-2.39-6.76-3.58-1.75-1.19-3.25-2.95-4.51-5.29-1.26-2.33-1.89-5.37-1.89-9.12,0-5.57,1.44-9.93,4.33-13.08,2.88-3.15,6.64-4.73,11.27-4.73s8.51,1.58,11.4,4.73c2.88,3.15,4.43,7.54,4.63,13.17h-11.27c-.08-1.93-.59-3.45-1.52-4.56-.93-1.11-2.13-1.66-3.59-1.66-1.26,0-2.28.47-3.05,1.41-.77.94-1.16,2.29-1.16,4.05,0,1.93.65,3.44,1.95,4.52,1.3,1.08,3.33,2.25,6.09,3.49,2.76,1.31,5.01,2.56,6.73,3.75s3.22,2.93,4.48,5.2c1.26,2.27,1.89,5.2,1.89,8.78s-.62,6.51-1.86,9.29c-1.24,2.78-3.04,5-5.39,6.65-2.36,1.65-5.14,2.47-8.35,2.47s-5.93-.71-8.41-2.13Z"/><path class="cls-1" d="M645.4,112.52v11.68h-11.33v48.16h-10.42v-48.16h-11.33v-11.68h33.09Z"/><path class="cls-1" d="M665.45,112.52v35.8c0,3.58.63,6.34,1.89,8.27,1.26,1.93,3.11,2.9,5.54,2.9s4.31-.96,5.61-2.9c1.3-1.93,1.95-4.69,1.95-8.27v-35.8h10.42v35.71c0,5.34-.81,9.86-2.44,13.55-1.62,3.69-3.81,6.48-6.55,8.35-2.74,1.88-5.8,2.81-9.17,2.81s-6.39-.92-9.05-2.77c-2.66-1.85-4.76-4.63-6.31-8.35-1.54-3.72-2.32-8.25-2.32-13.6v-35.71h10.42Z"/><path class="cls-1" d="M730.59,116.27c3.37,2.5,5.98,6.01,7.83,10.53s2.77,9.73,2.77,15.64-.92,11.05-2.77,15.6-4.47,8.07-7.86,10.57c-3.39,2.5-7.32,3.75-11.79,3.75h-16.03v-59.84h16.03c4.51,0,8.45,1.25,11.82,3.75ZM727.3,155.22c2.19-3.01,3.29-7.27,3.29-12.79s-1.1-9.8-3.29-12.87c-2.19-3.07-5.26-4.6-9.2-4.6h-4.94v34.78h4.94c3.94,0,7.01-1.5,9.2-4.52Z"/><path class="cls-1" d="M762.04,112.52v59.84h-10.42v-59.84h10.42Z"/><path class="cls-1" d="M783.33,169.03c-3.35-2.61-6.01-6.26-7.98-10.95-1.97-4.69-2.96-9.96-2.96-15.81s.98-11.11,2.96-15.77c1.97-4.66,4.63-8.3,7.98-10.91,3.35-2.61,7.04-3.92,11.06-3.92s7.71,1.31,11.06,3.92c3.35,2.61,5.99,6.25,7.92,10.91,1.93,4.66,2.89,9.92,2.89,15.77s-.98,11.12-2.93,15.81c-1.95,4.69-4.59,8.34-7.92,10.95-3.33,2.61-7.01,3.92-11.03,3.92s-7.71-1.31-11.06-3.92ZM802.59,154.88c2.05-3.18,3.08-7.39,3.08-12.62s-1.03-9.5-3.08-12.66c-2.05-3.15-4.78-4.73-8.2-4.73s-6.21,1.56-8.26,4.69c-2.05,3.13-3.08,7.36-3.08,12.7s1.03,9.5,3.08,12.66c2.05,3.15,4.8,4.73,8.26,4.73s6.14-1.59,8.2-4.77Z"/></svg>