<svg width="882" height="180" viewBox="0 0 882 180" fill="none" xmlns="http://www.w3.org/2000/svg">
<path d="M4.45773 89.2468C4.45773 80.9644 6.24959 73.5978 9.83332 67.1471C13.4171 60.6168 18.3945 55.5597 24.7655 51.976C31.2163 48.3126 38.5032 46.4809 46.6263 46.4809C56.5811 46.4809 65.1024 49.109 72.1902 54.3651C79.2781 59.6213 84.0166 66.7887 86.4057 75.8675H63.9477C62.2753 72.3634 59.8861 69.6955 56.7802 67.8639C53.7539 66.0322 50.2897 65.1163 46.3874 65.1163C40.0959 65.1163 34.9991 67.3064 31.0968 71.6865C27.1945 76.0666 25.2434 81.9201 25.2434 89.2468C25.2434 96.5735 27.1945 102.427 31.0968 106.807C34.9991 111.187 40.0959 113.377 46.3874 113.377C50.2897 113.377 53.7539 112.461 56.7802 110.63C59.8861 108.798 62.2753 106.13 63.9477 102.626H86.4057C84.0166 111.705 79.2781 118.872 72.1902 124.128C65.1024 129.305 56.5811 131.893 46.6263 131.893C38.5032 131.893 31.2163 130.101 24.7655 126.518C18.3945 122.854 13.4171 117.797 9.83332 111.346C6.24959 104.896 4.45773 97.5292 4.45773 89.2468ZM119.342 63.8023V80.7653H146.698V96.5337H119.342V114.93H150.282V131.296H98.9152V47.4366H150.282V63.8023H119.342ZM206.309 131.296L188.869 99.6396H183.971V131.296H163.544V47.4366H197.828C204.438 47.4366 210.053 48.5914 214.672 50.9009C219.37 53.2104 222.874 56.3959 225.184 60.4575C227.493 64.4394 228.648 68.8992 228.648 73.8367C228.648 79.4114 227.055 84.3888 223.87 88.769C220.764 93.1491 216.145 96.255 210.013 98.0867L229.365 131.296H206.309ZM183.971 85.1852H196.633C200.376 85.1852 203.164 84.2694 204.995 82.4377C206.907 80.606 207.862 78.0178 207.862 74.673C207.862 71.4874 206.907 68.9788 204.995 67.1471C203.164 65.3154 200.376 64.3996 196.633 64.3996H183.971V85.1852ZM474.331 132.132C468.199 132.132 462.704 131.137 457.846 129.146C452.988 127.155 449.086 124.208 446.139 120.306C443.272 116.404 441.759 111.705 441.6 106.21H463.341C463.66 109.316 464.735 111.705 466.567 113.377C468.398 114.97 470.788 115.766 473.734 115.766C476.76 115.766 479.15 115.089 480.902 113.736C482.654 112.302 483.53 110.351 483.53 107.882C483.53 105.812 482.813 104.099 481.379 102.746C480.026 101.392 478.313 100.277 476.243 99.4007C474.252 98.5247 471.385 97.5292 467.642 96.4143C462.226 94.7418 457.807 93.0694 454.382 91.397C450.958 89.7246 448.011 87.2558 445.542 83.9907C443.073 80.7255 441.839 76.4648 441.839 71.2087C441.839 63.4041 444.666 57.3118 450.32 52.9317C455.975 48.4719 463.341 46.242 472.42 46.242C481.658 46.242 489.104 48.4719 494.759 52.9317C500.413 57.3118 503.439 63.4439 503.838 71.3281H481.738C481.579 68.6204 480.583 66.51 478.751 64.9969C476.92 63.4041 474.57 62.6077 471.703 62.6077C469.235 62.6077 467.244 63.2847 465.731 64.6385C464.217 65.9127 463.461 67.7842 463.461 70.253C463.461 72.9607 464.735 75.0711 467.283 76.5843C469.832 78.0974 473.814 79.73 479.229 81.482C484.645 83.3137 489.025 85.0658 492.37 86.7382C495.794 88.4106 498.741 90.8396 501.209 94.0251C503.678 97.2106 504.913 101.312 504.913 106.329C504.913 111.108 503.678 115.448 501.209 119.35C498.82 123.252 495.316 126.358 490.697 128.668C486.078 130.977 480.623 132.132 474.331 132.132ZM577.81 47.4366V63.8023H555.591V131.296H535.163V63.8023H512.944V47.4366H577.81ZM608.131 47.4366V97.6088C608.131 102.626 609.365 106.489 611.834 109.196C614.303 111.904 617.926 113.258 622.704 113.258C627.483 113.258 631.146 111.904 633.695 109.196C636.243 106.489 637.517 102.626 637.517 97.6088V47.4366H657.944V97.4894C657.944 104.975 656.352 111.307 653.166 116.483C649.981 121.66 645.68 125.562 640.265 128.19C634.929 130.818 628.956 132.132 622.346 132.132C615.736 132.132 609.803 130.858 604.547 128.309C599.37 125.681 595.269 121.779 592.243 116.603C589.216 111.346 587.703 104.975 587.703 97.4894V47.4366H608.131ZM703.706 47.4366C712.546 47.4366 720.271 49.1886 726.881 52.6927C733.491 56.1968 738.588 61.1344 742.172 67.5055C745.835 73.7969 747.667 81.0838 747.667 89.3662C747.667 97.569 745.835 104.856 742.172 111.227C738.588 117.598 733.451 122.536 726.761 126.04C720.151 129.544 712.466 131.296 703.706 131.296H672.289V47.4366H703.706ZM702.392 113.616C710.117 113.616 716.13 111.506 720.43 107.285C724.731 103.064 726.881 97.0912 726.881 89.3662C726.881 81.6413 724.731 75.6286 720.43 71.3281C716.13 67.0277 710.117 64.8774 702.392 64.8774H692.716V113.616H702.392ZM779.509 47.4366V131.296H759.082V47.4366H779.509ZM833.973 132.132C826.089 132.132 818.842 130.3 812.232 126.637C805.701 122.974 800.485 117.877 796.583 111.346C792.76 104.736 790.849 97.3301 790.849 89.1273C790.849 80.9246 792.76 73.558 796.583 67.0277C800.485 60.4973 805.701 55.4004 812.232 51.7371C818.842 48.0737 826.089 46.242 833.973 46.242C841.857 46.242 849.064 48.0737 855.595 51.7371C862.205 55.4004 867.381 60.4973 871.124 67.0277C874.947 73.558 876.858 80.9246 876.858 89.1273C876.858 97.3301 874.947 104.736 871.124 111.346C867.302 117.877 862.125 122.974 855.595 126.637C849.064 130.3 841.857 132.132 833.973 132.132ZM833.973 113.497C840.662 113.497 845.998 111.267 849.98 106.807C854.042 102.347 856.073 96.4541 856.073 89.1273C856.073 81.721 854.042 75.8277 849.98 71.4476C845.998 66.9878 840.662 64.758 833.973 64.758C827.204 64.758 821.788 66.948 817.727 71.3281C813.745 75.7083 811.754 81.6413 811.754 89.1273C811.754 96.5337 813.745 102.467 817.727 106.927C821.788 111.307 827.204 113.497 833.973 113.497Z" fill="url(#paint0_linear_2545_2194)"/>
<path d="M308.956 103.256L320.02 114.32C317.231 117.034 314.45 119.756 311.653 122.462C302.104 131.725 288.72 136.776 275.42 135.234C256.34 133.032 240.477 117.386 237.679 98.4068C234.966 79.9637 245.108 60.9176 262.002 52.9942C270.495 49.0074 280.253 48.0275 289.365 50.2219C296.133 51.8468 302.632 54.8117 308.026 59.2424C311.1 61.7635 313.814 64.762 316.628 67.5594C319.643 70.5495 322.65 73.5396 325.665 76.5297C327.533 78.3807 329.401 80.2401 331.268 82.0911C327.633 85.5419 323.998 88.9926 320.363 92.4434C320.204 92.5941 307.909 81.086 306.736 80.014C302.314 75.9518 298.369 71.1358 293.034 68.2043C287.372 65.097 280.738 64.2762 274.465 65.7252C262.077 68.5896 253.124 79.8883 253.233 92.6528C253.325 103.801 260.603 114.79 271.408 118.14C276.308 119.664 280.981 120.317 286.074 119.287C296.015 117.285 302.012 109.965 308.939 103.248L308.956 103.256Z" fill="url(#paint1_linear_2545_2194)"/>
<path d="M331.286 82.0994C327.517 78.3555 323.748 74.6116 319.97 70.8761C324.016 66.8223 328.07 62.7685 332.115 58.7147C335.457 56.1685 342.543 51.5116 352.711 50.0375C356.857 49.4345 367.05 48.5383 378.005 53.8149C384.94 57.1484 389.48 61.6378 391.976 64.519C394.388 67.4588 397.931 72.5093 400.234 79.6118C402.613 86.9489 402.646 93.3143 402.378 97.1504C402.118 100.526 401.34 105.333 399.011 110.61C395.326 118.952 389.723 124.053 386.573 126.515C383.742 128.852 378.089 132.889 369.847 134.874C361.178 136.968 353.975 135.745 350.366 134.874C347.141 134.221 342.501 132.889 337.517 129.983C333.346 127.554 330.298 124.807 328.237 122.637L308.965 103.265L320.389 92.4516L332.626 104.688C336.278 108.089 339.921 111.489 343.573 114.882C355.458 125.954 376.506 118.424 383.349 105.476C389.153 94.4953 386.263 79.6537 376.765 71.655C366.145 62.7098 349.461 63.606 339.653 73.2547C338.606 74.2849 335.457 77.5765 331.303 82.0994H331.286Z" fill="url(#paint2_linear_2545_2194)"/>
<defs>
<linearGradient id="paint0_linear_2545_2194" x1="0.515625" y1="9.3546" x2="799.756" y2="357.782" gradientUnits="userSpaceOnUse">
<stop stop-color="#F9AC5C"/>
<stop offset="0.485577" stop-color="#CC4F6D"/>
<stop offset="1" stop-color="#9266AB"/>
</linearGradient>
<linearGradient id="paint1_linear_2545_2194" x1="242.579" y1="64.7201" x2="320.305" y2="121.348" gradientUnits="userSpaceOnUse">
<stop offset="0.2" stop-color="#F9AC5C"/>
<stop offset="0.28" stop-color="#F5A35D"/>
<stop offset="0.39" stop-color="#EA8D61"/>
<stop offset="0.53" stop-color="#D86968"/>
<stop offset="0.62" stop-color="#CC4F6D"/>
<stop offset="1" stop-color="#6B3C87"/>
</linearGradient>
<linearGradient id="paint2_linear_2545_2194" x1="313.287" y1="82.9118" x2="401.783" y2="101.723" gradientUnits="userSpaceOnUse">
<stop stop-color="#CC4F6D"/>
<stop offset="1" stop-color="#5E2B7B"/>
</linearGradient>
</defs>
</svg>
