<?xml version="1.0" encoding="UTF-8"?>
<svg id="Layer_1" xmlns="http://www.w3.org/2000/svg" xmlns:xlink="http://www.w3.org/1999/xlink" version="1.1" viewBox="0 0 198.4 108.2">
  <!-- Generator: Adobe Illustrator 29.7.1, SVG Export Plug-In . SVG Version: 2.1.1 Build 8)  -->
  <defs>
    <style>
      .st0 {
        fill: url(#linear-gradient1);
      }

      .st1 {
        fill: url(#linear-gradient);
      }
    </style>
    <linearGradient id="linear-gradient" x1="6.9" y1="88.9" x2="99.7" y2="21.3" gradientTransform="translate(0 110.1) scale(1 -1)" gradientUnits="userSpaceOnUse">
      <stop offset=".2" stop-color="#f9ac5c"/>
      <stop offset=".3" stop-color="#f5a35d"/>
      <stop offset=".4" stop-color="#ea8d61"/>
      <stop offset=".5" stop-color="#d86968"/>
      <stop offset=".6" stop-color="#cc4f6d"/>
      <stop offset="1" stop-color="#6b3c87"/>
    </linearGradient>
    <linearGradient id="linear-gradient1" x1="91.3" y1="67.2" x2="197" y2="44.7" gradientTransform="translate(0 110.1) scale(1 -1)" gradientUnits="userSpaceOnUse">
      <stop offset="0" stop-color="#cc4f6d"/>
      <stop offset="1" stop-color="#5e2b7b"/>
    </linearGradient>
  </defs>
  <path class="st1" d="M86.2,67.3l13.2,13.2c-3.3,3.2-6.6,6.5-10,9.7-11.4,11.1-27.4,17.1-43.3,15.2C23.4,102.8,4.4,84.1,1.1,61.5-2.2,39.4,9.9,16.7,30.1,7.2c10.1-4.8,21.8-5.9,32.7-3.3,8.1,1.9,15.8,5.5,22.3,10.8,3.7,3,6.9,6.6,10.3,9.9,3.6,3.6,7.2,7.1,10.8,10.7,2.2,2.2,4.5,4.4,6.7,6.6-4.3,4.1-8.7,8.2-13,12.4-.2.2-14.9-13.6-16.3-14.8-5.3-4.9-10-10.6-16.4-14.1-6.8-3.7-14.7-4.7-22.2-3-14.8,3.4-25.5,16.9-25.4,32.2.1,13.3,8.8,26.4,21.7,30.4,5.9,1.8,11.4,2.6,17.5,1.4,11.9-2.4,19-11.1,27.3-19.1h0Z"/>
  <path class="st0" d="M112.8,42c-4.5-4.5-9-8.9-13.5-13.4,4.8-4.8,9.7-9.7,14.5-14.5,4-3,12.4-8.6,24.6-10.4,4.9-.7,17.1-1.8,30.2,4.5,8.3,4,13.7,9.3,16.7,12.8,2.9,3.5,7.1,9.5,9.9,18,2.8,8.8,2.9,16.4,2.6,20.9-.3,4-1.2,9.8-4,16.1-4.4,10-11.1,16.1-14.9,19-3.4,2.8-10.1,7.6-20,10-10.4,2.5-18.9,1-23.3,0-3.9-.8-9.4-2.4-15.3-5.8-5-2.9-8.6-6.2-11.1-8.8l-23-23.1,13.6-12.9,14.6,14.6c4.4,4.1,8.7,8.1,13.1,12.2,14.2,13.2,39.3,4.2,47.5-11.2,6.9-13.1,3.5-30.8-7.9-40.4-12.7-10.7-32.6-9.6-44.3,1.9-1.2,1.2-5,5.2-10,10.6h0Z"/>
</svg>