<?xml version="1.0" encoding="UTF-8"?><svg id="Layer_1" xmlns="http://www.w3.org/2000/svg" width="415.44" height="312.2" xmlns:xlink="http://www.w3.org/1999/xlink" viewBox="0 0 415.44 312.2"><defs><style>.cls-1{fill:url(#linear-gradient-2);}.cls-2{fill:url(#linear-gradient);}</style><linearGradient id="linear-gradient" x1="116.1" y1="123.18" x2="208.9" y2="190.79" gradientUnits="userSpaceOnUse"><stop offset=".2" stop-color="#f9ac5c"/><stop offset=".28" stop-color="#f5a35d"/><stop offset=".39" stop-color="#ea8d61"/><stop offset=".53" stop-color="#d86968"/><stop offset=".62" stop-color="#cc4f6d"/><stop offset="1" stop-color="#6b3c87"/></linearGradient><linearGradient id="linear-gradient-2" x1="200.52" y1="144.9" x2="306.18" y2="167.36" gradientUnits="userSpaceOnUse"><stop offset="0" stop-color="#cc4f6d"/><stop offset="1" stop-color="#5e2b7b"/></linearGradient></defs><path class="cls-2" d="M195.35,169.19s13.21,13.21,13.21,13.21c-3.33,3.24-6.65,6.49-9.99,9.72-11.4,11.06-27.38,17.09-43.26,15.25-22.78-2.63-41.72-21.31-45.06-43.97-3.24-22.02,8.87-44.76,29.04-54.22,10.14-4.76,21.79-5.93,32.67-3.31,8.08,1.94,15.84,5.48,22.28,10.77,3.67,3.01,6.91,6.59,10.27,9.93,3.6,3.57,7.19,7.14,10.79,10.71,2.23,2.21,4.46,4.43,6.69,6.64-4.34,4.12-8.68,8.24-13.02,12.36-.19.18-14.87-13.56-16.27-14.84-5.28-4.85-9.99-10.6-16.36-14.1-6.76-3.71-14.68-4.69-22.17-2.96-14.79,3.42-25.48,16.91-25.35,32.15.11,13.31,8.8,26.43,21.7,30.43,5.85,1.82,11.43,2.6,17.51,1.37,11.87-2.39,19.03-11.13,27.3-19.15Z"/><path class="cls-1" d="M222.01,143.93c-4.5-4.47-9-8.94-13.51-13.4,4.83-4.84,9.67-9.68,14.5-14.52,3.99-3.04,12.45-8.6,24.59-10.36,4.95-.72,17.12-1.79,30.2,4.51,8.28,3.98,13.7,9.34,16.68,12.78,2.88,3.51,7.11,9.54,9.86,18.02,2.84,8.76,2.88,16.36,2.56,20.94-.31,4.03-1.24,9.77-4.02,16.07-4.4,9.96-11.09,16.05-14.85,18.99-3.38,2.79-10.13,7.61-19.97,9.98-10.35,2.5-18.95,1.04-23.26,0-3.85-.78-9.39-2.37-15.34-5.84-4.98-2.9-8.62-6.18-11.08-8.77l-23.01-23.13,13.64-12.91,14.61,14.61c4.36,4.06,8.71,8.12,13.07,12.17,14.19,13.22,39.32,4.23,47.49-11.23,6.93-13.11,3.48-30.83-7.86-40.38-12.68-10.68-32.6-9.61-44.31,1.91-1.25,1.23-5.01,5.16-9.97,10.56Z"/></svg>