<svg width="910" height="55" viewBox="0 0 910 55" fill="none" xmlns="http://www.w3.org/2000/svg">
<path d="M12.032 53.8364H-0.000787735L18.3337 0.726178H32.8041L51.1126 53.8364H39.0798L25.7764 12.8627H25.3614L12.032 53.8364ZM11.28 32.9606H39.7022V41.7258H11.28V32.9606ZM101.928 0.726178V53.8364H92.229L69.1229 20.4091H68.7339V53.8364H57.5051V0.726178H67.3595L90.284 34.1275H90.7508V0.726178H101.928ZM130.032 53.8364H111.205V0.726178H130.188C135.53 0.726178 140.129 1.78942 143.984 3.91591C147.84 6.0251 150.805 9.05923 152.879 13.0183C154.971 16.9774 156.017 21.7144 156.017 27.2294C156.017 32.7618 154.971 37.5161 152.879 41.4924C150.805 45.4688 147.822 48.5202 143.932 50.6467C140.06 52.7732 135.426 53.8364 130.032 53.8364ZM122.434 44.2154H129.566C132.885 44.2154 135.677 43.6276 137.942 42.452C140.224 41.259 141.936 39.4178 143.077 36.9283C144.235 34.4214 144.814 31.1885 144.814 27.2294C144.814 23.3049 144.235 20.0979 143.077 17.6084C141.936 15.1188 140.233 13.2863 137.968 12.1106C135.703 10.935 132.911 10.3472 129.592 10.3472H122.434V44.2154ZM164.335 53.8364V0.726178H185.289C189.3 0.726178 192.723 1.44365 195.558 2.8786C198.411 4.29625 200.58 6.31036 202.067 8.92093C203.571 11.5142 204.323 14.5656 204.323 18.0752C204.323 21.602 203.563 24.6362 202.041 27.1776C200.52 29.7017 198.315 31.638 195.428 32.9865C192.558 34.335 189.083 35.0093 185.003 35.0093H170.974V25.9847H183.188C185.332 25.9847 187.113 25.6908 188.53 25.103C189.948 24.5151 191.002 23.6334 191.694 22.4578C192.403 21.2822 192.757 19.8213 192.757 18.0752C192.757 16.3118 192.403 14.8249 191.694 13.6148C191.002 12.4046 189.939 11.4883 188.504 10.8659C187.087 10.2262 185.297 9.90637 183.136 9.90637H175.564V53.8364H164.335ZM193.017 29.6671L206.216 53.8364H193.82L180.906 29.6671H193.017ZM212.259 53.8364V0.726178H248.046V9.98416H223.488V22.6393H246.205V31.8973H223.488V44.5784H248.15V53.8364H212.259ZM266.127 53.8364H254.095L272.429 0.726178H286.9L305.208 53.8364H293.175L279.872 12.8627H279.457L266.127 53.8364ZM265.375 32.9606H293.798V41.7258H265.375V32.9606ZM339.199 16.0006C338.992 13.9087 338.102 12.2835 336.528 11.1252C334.955 9.96688 332.82 9.38771 330.123 9.38771C328.29 9.38771 326.743 9.64704 325.481 10.1657C324.219 10.6671 323.251 11.3672 322.577 12.2662C321.92 13.1652 321.591 14.1853 321.591 15.3263C321.557 16.2772 321.755 17.107 322.188 17.8159C322.637 18.5247 323.251 19.1384 324.029 19.6571C324.807 20.1584 325.706 20.5993 326.726 20.9796C327.746 21.3427 328.835 21.6539 329.993 21.9132L334.765 23.0543C337.082 23.5729 339.208 24.2645 341.144 25.1289C343.081 25.9933 344.758 27.0566 346.175 28.3186C347.593 29.5807 348.691 31.0675 349.469 32.779C350.264 34.4906 350.67 36.4528 350.688 38.6658C350.67 41.916 349.84 44.734 348.198 47.1198C346.573 49.4884 344.222 51.3296 341.144 52.6435C338.084 53.9402 334.393 54.5885 330.071 54.5885C325.784 54.5885 322.049 53.9315 318.868 52.6176C315.704 51.3037 313.232 49.3587 311.451 46.7827C309.688 44.1894 308.763 40.9824 308.677 37.1617H319.542C319.663 38.9424 320.173 40.4292 321.072 41.6221C321.989 42.7977 323.208 43.6881 324.729 44.2932C326.268 44.881 328.005 45.1749 329.941 45.1749C331.843 45.1749 333.494 44.8983 334.895 44.345C336.312 43.7918 337.41 43.0225 338.188 42.037C338.966 41.0516 339.355 39.9192 339.355 38.6398C339.355 37.4469 339.001 36.4442 338.292 35.6316C337.6 34.8191 336.58 34.1275 335.232 33.557C333.901 32.9865 332.267 32.4678 330.33 32.0011L324.547 30.5488C320.07 29.4597 316.534 27.7567 313.941 25.4401C311.348 23.1234 310.06 20.0028 310.077 16.0784C310.06 12.8627 310.915 10.0533 312.644 7.65022C314.39 5.24712 316.785 3.37132 319.828 2.02282C322.87 0.674312 326.328 6.10182e-05 330.201 6.10182e-05C334.143 6.10182e-05 337.583 0.674312 340.522 2.02282C343.478 3.37132 345.778 5.24712 347.42 7.65022C349.063 10.0533 349.91 12.8368 349.962 16.0006H339.199ZM403.953 16.0006C403.746 13.9087 402.856 12.2835 401.282 11.1252C399.709 9.96688 397.574 9.38771 394.877 9.38771C393.044 9.38771 391.497 9.64704 390.235 10.1657C388.973 10.6671 388.005 11.3672 387.331 12.2662C386.674 13.1652 386.345 14.1853 386.345 15.3263C386.311 16.2772 386.509 17.107 386.942 17.8159C387.391 18.5247 388.005 19.1384 388.783 19.6571C389.561 20.1584 390.46 20.5993 391.48 20.9796C392.5 21.3427 393.589 21.6539 394.747 21.9132L399.519 23.0543C401.836 23.5729 403.962 24.2645 405.898 25.1289C407.835 25.9933 409.512 27.0566 410.929 28.3186C412.347 29.5807 413.445 31.0675 414.223 32.779C415.018 34.4906 415.424 36.4528 415.442 38.6658C415.424 41.916 414.595 44.734 412.952 47.1198C411.327 49.4884 408.976 51.3296 405.898 52.6435C402.838 53.9402 399.147 54.5885 394.825 54.5885C390.538 54.5885 386.803 53.9315 383.622 52.6176C380.458 51.3037 377.986 49.3587 376.205 46.7827C374.442 44.1894 373.517 40.9824 373.431 37.1617H384.296C384.417 38.9424 384.927 40.4292 385.826 41.6221C386.743 42.7977 387.962 43.6881 389.483 44.2932C391.022 44.881 392.759 45.1749 394.695 45.1749C396.597 45.1749 398.248 44.8983 399.649 44.345C401.066 43.7918 402.164 43.0225 402.942 42.037C403.72 41.0516 404.109 39.9192 404.109 38.6398C404.109 37.4469 403.755 36.4442 403.046 35.6316C402.354 34.8191 401.334 34.1275 399.986 33.557C398.655 32.9865 397.021 32.4678 395.084 32.0011L389.301 30.5488C384.824 29.4597 381.288 27.7567 378.695 25.4401C376.102 23.1234 374.814 20.0028 374.831 16.0784C374.814 12.8627 375.669 10.0533 377.398 7.65022C379.144 5.24712 381.539 3.37132 384.582 2.02282C387.624 0.674312 391.082 6.10182e-05 394.955 6.10182e-05C398.897 6.10182e-05 402.337 0.674312 405.276 2.02282C408.232 3.37132 410.532 5.24712 412.174 7.65022C413.817 10.0533 414.664 12.8368 414.716 16.0006H403.953ZM430.936 53.8364H418.904L437.238 0.726178H451.709L470.017 53.8364H457.984L444.681 12.8627H444.266L430.936 53.8364ZM430.184 32.9606H458.607V41.7258H430.184V32.9606ZM509.13 17.8937C508.767 16.6316 508.257 15.5165 507.6 14.5483C506.943 13.5629 506.139 12.733 505.188 12.0588C504.255 11.3672 503.183 10.8399 501.973 10.4769C500.78 10.1138 499.457 9.9323 498.005 9.9323C495.291 9.9323 492.905 10.6066 490.848 11.9551C488.808 13.3036 487.217 15.2658 486.076 17.8418C484.935 20.4005 484.364 23.5297 484.364 27.2294C484.364 30.9292 484.926 34.0757 486.05 36.669C487.174 39.2622 488.764 41.2418 490.822 42.6076C492.879 43.9561 495.308 44.6303 498.109 44.6303C500.65 44.6303 502.82 44.1808 504.618 43.2818C506.433 42.3655 507.816 41.0775 508.767 39.4178C509.735 37.7581 510.219 35.7959 510.219 33.5311L512.501 33.8682H498.809V25.4141H521.033V32.1048C521.033 36.7727 520.048 40.7836 518.077 44.1376C516.106 47.4743 513.392 50.0502 509.934 51.8655C506.476 53.6635 502.517 54.5625 498.057 54.5625C493.078 54.5625 488.704 53.4647 484.935 51.2691C481.166 49.0562 478.227 45.9183 476.118 41.8555C474.026 37.7754 472.98 32.9346 472.98 27.3332C472.98 23.0283 473.602 19.1903 474.847 15.819C476.109 12.4305 477.873 9.5606 480.137 7.20936C482.402 4.85813 485.039 3.06877 488.047 1.84128C491.055 0.613802 494.314 6.10182e-05 497.823 6.10182e-05C500.832 6.10182e-05 503.632 0.440918 506.226 1.32263C508.819 2.18706 511.118 3.41454 513.124 5.00508C515.147 6.59562 516.798 8.48871 518.077 10.6843C519.356 12.8627 520.178 15.2658 520.541 17.8937H509.13ZM529.468 53.8364V0.726178H565.255V9.98416H540.697V22.6393H563.414V31.8973H540.697V44.5784H565.359V53.8364H529.468ZM600.238 53.8364H588.206L606.54 0.726178H621.01L639.319 53.8364H627.286L613.983 12.8627H613.568L600.238 53.8364ZM599.486 32.9606H627.909V41.7258H599.486V32.9606ZM645.711 0.726178H659.56L674.186 36.4096H674.808L689.434 0.726178H703.282V53.8364H692.39V19.2681H691.949L678.205 53.5771H670.788L657.044 19.1384H656.603V53.8364H645.711V0.726178ZM721.688 53.8364H709.655L727.989 0.726178H742.46L760.768 53.8364H748.736L735.432 12.8627H735.017L721.688 53.8364ZM720.936 32.9606H749.358V41.7258H720.936V32.9606ZM785.988 53.8364H767.161V0.726178H786.144C791.486 0.726178 796.085 1.78942 799.94 3.91591C803.795 6.0251 806.76 9.05923 808.835 13.0183C810.927 16.9774 811.973 21.7144 811.973 27.2294C811.973 32.7618 810.927 37.5161 808.835 41.4924C806.76 45.4688 803.778 48.5202 799.888 50.6467C796.015 52.7732 791.382 53.8364 785.988 53.8364ZM778.39 44.2154H785.521C788.841 44.2154 791.633 43.6276 793.898 42.452C796.18 41.259 797.891 39.4178 799.032 36.9283C800.191 34.4214 800.77 31.1885 800.77 27.2294C800.77 23.3049 800.191 20.0979 799.032 17.6084C797.891 15.1188 796.188 13.2863 793.923 12.1106C791.659 10.935 788.867 10.3472 785.547 10.3472H778.39V44.2154ZM820.291 53.8364V0.726178H856.078V9.98416H831.519V22.6393H854.237V31.8973H831.519V44.5784H856.181V53.8364H820.291ZM897.81 0.726178H909.039V35.2167C909.039 39.0893 908.114 42.4779 906.264 45.3824C904.432 48.2868 901.864 50.5516 898.562 52.1767C895.26 53.7846 891.413 54.5885 887.022 54.5885C882.613 54.5885 878.758 53.7846 875.456 52.1767C872.154 50.5516 869.587 48.2868 867.754 45.3824C865.921 42.4779 865.005 39.0893 865.005 35.2167V0.726178H876.234V34.2572C876.234 36.28 876.675 38.078 877.557 39.6512C878.456 41.2245 879.718 42.4606 881.343 43.3596C882.968 44.2586 884.861 44.7081 887.022 44.7081C889.2 44.7081 891.093 44.2586 892.701 43.3596C894.326 42.4606 895.58 41.2245 896.462 39.6512C897.361 38.078 897.81 36.28 897.81 34.2572V0.726178Z" fill="url(#paint0_linear_2685_258)"/>
<defs>
<linearGradient id="paint0_linear_2685_258" x1="-42.6706" y1="23.4072" x2="-31.4691" y2="-80.8267" gradientUnits="userSpaceOnUse">
<stop stop-color="#F9AC5C"/>
<stop offset="0.456731" stop-color="#CC4F6D"/>
<stop offset="1" stop-color="#9266AB"/>
</linearGradient>
</defs>
</svg>
