<svg width="25" height="25" viewBox="0 0 25 25" fill="none" xmlns="http://www.w3.org/2000/svg">
<path d="M10.7368 16.7048L9.92383 19.5508L9.11083 16.7048C8.9007 15.9696 8.50673 15.3002 7.96609 14.7595C7.42545 14.2189 6.75597 13.8249 6.02083 13.6148L3.17383 12.8008L6.01983 11.9878C6.75497 11.7777 7.42445 11.3837 7.96509 10.843C8.50573 10.3024 8.8997 9.63292 9.10983 8.89778L9.92383 6.05078L10.7368 8.89678C10.947 9.63192 11.3409 10.3014 11.8816 10.842C12.4222 11.3827 13.0917 11.7767 13.8268 11.9868L16.6738 12.8008L13.8278 13.6138C13.0927 13.8239 12.4232 14.2179 11.8826 14.7585C11.3419 15.2992 10.948 15.9686 10.7378 16.7038L10.7368 16.7048ZM19.1828 9.51578L18.9238 10.5508L18.6648 9.51578C18.5166 8.92237 18.2099 8.3804 17.7774 7.94781C17.345 7.51522 16.8032 7.20827 16.2098 7.05978L15.1738 6.80078L16.2098 6.54178C16.8032 6.39329 17.345 6.08634 17.7774 5.65375C18.2099 5.22116 18.5166 4.67919 18.6648 4.08578L18.9238 3.05078L19.1828 4.08578C19.3312 4.67932 19.638 5.22137 20.0706 5.65397C20.5032 6.08657 21.0453 6.39345 21.6388 6.54178L22.6738 6.80078L21.6388 7.05978C21.0453 7.20811 20.5032 7.51499 20.0706 7.94759C19.638 8.38019 19.3312 8.92225 19.1828 9.51578ZM17.8178 21.3678L17.4238 22.5508L17.0298 21.3678C16.9194 21.0364 16.7333 20.7353 16.4863 20.4883C16.2393 20.2413 15.9382 20.0552 15.6068 19.9448L14.4238 19.5508L15.6068 19.1568C15.9382 19.0463 16.2393 18.8602 16.4863 18.6132C16.7333 18.3663 16.9194 18.0652 17.0298 17.7338L17.4238 16.5508L17.8178 17.7338C17.9283 18.0652 18.1144 18.3663 18.3614 18.6132C18.6084 18.8602 18.9095 19.0463 19.2408 19.1568L20.4238 19.5508L19.2408 19.9448C18.9095 20.0552 18.6084 20.2413 18.3614 20.4883C18.1144 20.7353 17.9283 21.0364 17.8178 21.3678Z" stroke="url(#paint0_linear_2629_99)" stroke-width="1.5" stroke-linecap="round" stroke-linejoin="round"/>
<defs>
<linearGradient id="paint0_linear_2629_99" x1="12.9238" y1="3.05078" x2="12.9238" y2="22.5508" gradientUnits="userSpaceOnUse">
<stop stop-color="#F9AC5C"/>
<stop offset="0.5" stop-color="#CC4F6D"/>
<stop offset="1" stop-color="#9266AB"/>
</linearGradient>
</defs>
</svg>
