<svg width="31" height="31" viewBox="0 0 31 31" fill="none" xmlns="http://www.w3.org/2000/svg">
<path d="M18.4102 12.8794L21.2227 15.6919L18.4102 18.5044M12.7852 18.5044L9.97266 15.6919L12.7852 12.8794M8.09766 26.0044H23.0977C23.8436 26.0044 24.5589 25.7081 25.0864 25.1806C25.6138 24.6532 25.9102 23.9378 25.9102 23.1919V8.19189C25.9102 7.44597 25.6138 6.7306 25.0864 6.20316C24.5589 5.67571 23.8436 5.37939 23.0977 5.37939H8.09766C7.35173 5.37939 6.63636 5.67571 6.10892 6.20316C5.58147 6.7306 5.28516 7.44597 5.28516 8.19189V23.1919C5.28516 23.9378 5.58147 24.6532 6.10892 25.1806C6.63636 25.7081 7.35173 26.0044 8.09766 26.0044Z" stroke="url(#paint0_linear_2600_305)" stroke-width="2" stroke-linecap="round" stroke-linejoin="round"/>
<defs>
<linearGradient id="paint0_linear_2600_305" x1="15.5977" y1="5.37939" x2="15.5977" y2="26.0044" gradientUnits="userSpaceOnUse">
<stop stop-color="#F9AC5C"/>
<stop offset="0.5" stop-color="#CC4F6D"/>
<stop offset="1" stop-color="#9266AB"/>
</linearGradient>
</defs>
</svg>
