<svg width="31" height="31" viewBox="0 0 31 31" fill="none" xmlns="http://www.w3.org/2000/svg">
<path d="M12.3246 20.8445C11.9976 20.0383 11.4005 19.3709 10.6355 18.9566C9.87045 18.5423 8.9852 18.4068 8.13133 18.5735C7.27745 18.7401 6.50808 19.1985 5.95499 19.87C5.4019 20.5415 5.09951 21.3845 5.09961 22.2545C5.09961 22.6396 5.02051 23.0207 4.86721 23.374C4.71391 23.7273 4.48968 24.0453 4.20842 24.3084C3.92715 24.5715 3.59485 24.7741 3.2321 24.9035C2.86935 25.0329 2.48389 25.0864 2.09961 25.0607C2.71767 26.1344 3.6729 26.974 4.81701 27.4492C5.96113 27.9244 7.23012 28.0086 8.42698 27.6888C9.62385 27.3689 10.6816 26.6628 11.4361 25.6802C12.1906 24.6976 12.5996 23.4934 12.5996 22.2545C12.5996 21.7557 12.5021 21.2795 12.3246 20.8445ZM12.3246 20.8445C13.8109 20.3381 15.2323 19.6584 16.5596 18.8195M10.2559 18.7882C10.7624 17.2988 11.4429 15.8744 12.2834 14.5445M16.5584 18.8195C18.9288 17.3218 20.9577 15.3423 22.5134 13.0095L27.3584 5.74199C27.544 5.46519 27.6277 5.13254 27.5953 4.80085C27.5629 4.46917 27.4164 4.15901 27.1807 3.92336C26.9451 3.6877 26.6349 3.54116 26.3032 3.50877C25.9716 3.47637 25.6389 3.56013 25.3621 3.74574L18.0946 8.59199C15.7615 10.1472 13.7816 12.1756 12.2834 14.5457C14.1857 15.3963 15.7078 16.9184 16.5584 18.8207" stroke="url(#paint0_linear_2600_302)" stroke-width="2" stroke-linecap="round" stroke-linejoin="round"/>
<defs>
<linearGradient id="paint0_linear_2600_302" x1="14.8509" y1="3.50195" x2="14.8509" y2="27.8795" gradientUnits="userSpaceOnUse">
<stop stop-color="#F9AC5C"/>
<stop offset="0.5" stop-color="#CC4F6D"/>
<stop offset="1" stop-color="#9266AB"/>
</linearGradient>
</defs>
</svg>
