<svg width="31" height="31" viewBox="0 0 31 31" fill="none" xmlns="http://www.w3.org/2000/svg">
<path d="M18.7888 8.56705C18.5597 8.80071 18.4314 9.11486 18.4314 9.44205C18.4314 9.76924 18.5597 10.0834 18.7888 10.3171L20.7888 12.3171C21.0224 12.5461 21.3366 12.6744 21.6638 12.6744C21.991 12.6744 22.3051 12.5461 22.5388 12.3171L27.2513 7.60455C27.8798 8.99354 28.0701 10.5411 27.7968 12.041C27.5235 13.5409 26.7997 14.9219 25.7216 15.9999C24.6436 17.0779 23.2626 17.8018 21.7627 18.0751C20.2628 18.3484 18.7152 18.1581 17.3263 17.5296L8.68876 26.1671C8.19148 26.6643 7.51702 26.9437 6.81376 26.9437C6.1105 26.9437 5.43604 26.6643 4.93876 26.1671C4.44148 25.6698 4.16211 24.9953 4.16211 24.2921C4.16211 23.5888 4.44148 22.9143 4.93876 22.4171L13.5763 13.7796C12.9477 12.3906 12.7574 10.843 13.0307 9.34312C13.304 7.84323 14.0279 6.46225 15.1059 5.3842C16.184 4.30616 17.5649 3.58226 19.0648 3.30898C20.5647 3.0357 22.1123 3.22601 23.5013 3.85455L18.8013 8.55455L18.7888 8.56705Z" stroke="url(#paint0_linear_2600_298)" stroke-width="2" stroke-linecap="round" stroke-linejoin="round"/>
<defs>
<linearGradient id="paint0_linear_2600_298" x1="16.0402" y1="3.1875" x2="16.0402" y2="26.9437" gradientUnits="userSpaceOnUse">
<stop stop-color="#F9AC5C"/>
<stop offset="0.509615" stop-color="#CC4F6D"/>
<stop offset="1" stop-color="#9668A6"/>
</linearGradient>
</defs>
</svg>
